<?xml version="1.0" encoding="UTF-8"?><svg xmlns="http://www.w3.org/2000/svg" xmlns:xlink="http://www.w3.org/1999/xlink" height="162.5" preserveAspectRatio="xMidYMid meet" version="1.0" viewBox="111.7 129.7 203.4 162.5" width="203.4" zoomAndPan="magnify"><g id="change1_2"><path d="M233.859,213.979c-0.414-13.17-6.994-20.037-34.18-21.546c-18.613-1.033-65.869-5.062-79.98,10.955 c-7.979,9.058-6.586,42.737-6.105,54.008c0.672,15.745,5.529,22.235,20.816,22.862c0.658,0.027,1.316,0.056,1.973,0.083 c-1.121,5.636-2.246,11.409-2.986,11.308c4.123,0.564,12.178-6.676,15.656-8.931c0.828-0.536,1.902-1.1,3.051-1.708 c23.463,0.959,46.865,1.446,70.215-2.225C239.283,276.117,234.719,241.179,233.859,213.979z" fill="#A5ABD7"/></g><g id="change2_14"><path d="M145.135,275.229c0.156,1.405-0.859,2.672-2.266,2.828c-1.404,0.155-2.672-0.857-2.83-2.264 c-0.154-1.408,0.861-2.674,2.266-2.83C143.711,272.807,144.979,273.82,145.135,275.229z" fill="#8A96CB"/></g><g id="change2_15"><circle cx="132.3" cy="258.057" fill="#8A96CB" r=".891"/></g><g id="change2_16"><path d="M143.02,268.763c0.076,0.675-0.412,1.284-1.084,1.358c-0.678,0.075-1.285-0.412-1.361-1.086 c-0.076-0.678,0.412-1.285,1.09-1.36C142.334,267.6,142.947,268.086,143.02,268.763z" fill="#8A96CB"/></g><g id="change2_17"><path d="M138.027,272.212c0.055,0.487-0.299,0.926-0.783,0.98c-0.49,0.054-0.928-0.298-0.982-0.784 c-0.055-0.488,0.295-0.928,0.783-0.981C137.533,271.372,137.975,271.725,138.027,272.212z" fill="#8A96CB"/></g><g id="change2_18"><path d="M131.871,267.123c0.09,0.818-0.502,1.556-1.318,1.646c-0.82,0.091-1.555-0.499-1.646-1.317 c-0.09-0.819,0.498-1.556,1.32-1.647C131.041,265.713,131.779,266.304,131.871,267.123z" fill="#8A96CB"/></g><g id="change2_19"><circle cx="132.425" cy="261.878" fill="#8A96CB" r="1.015"/></g><g id="change2_20"><circle cx="135.605" cy="267.471" fill="#8A96CB" r="2.25"/></g><g fill="#8A96CB" id="change2_22"><path d="M125.939,236.049c-0.254-0.984,0.342-1.986,1.326-2.237c0.986-0.251,1.988,0.345,2.24,1.329 c0.25,0.984-0.346,1.988-1.33,2.238C127.189,237.631,126.188,237.035,125.939,236.049z" fill="inherit"/><path d="M122.947,217.803c-0.348-1.372,0.48-2.767,1.852-3.115c1.367-0.35,2.766,0.479,3.115,1.85 s-0.48,2.767-1.852,3.115C124.693,220.002,123.299,219.174,122.947,217.803z" fill="inherit"/><circle cx="120.313" cy="223.742" fill="inherit" r="2.214"/><circle cx="129.354" cy="228.443" fill="inherit" r="1.142"/><circle cx="133.076" cy="236.597" fill="inherit" r=".451"/><circle cx="117.643" cy="229.441" fill="inherit" r=".451"/><path d="M131.314,232.324c-0.15-0.591,0.207-1.193,0.795-1.343c0.594-0.151,1.195,0.207,1.346,0.798 c0.152,0.592-0.207,1.192-0.799,1.344C132.066,233.273,131.465,232.916,131.314,232.324z" fill="inherit"/><circle cx="138.038" cy="233.028" fill="inherit" r=".89"/><path d="M125.939,223.911c-0.172-0.657,0.23-1.328,0.885-1.496c0.66-0.168,1.332,0.23,1.498,0.889 c0.168,0.659-0.229,1.329-0.891,1.497C126.775,224.969,126.104,224.571,125.939,223.911z" fill="inherit"/><path d="M130.404,219.804c-0.121-0.475,0.166-0.958,0.641-1.079c0.479-0.122,0.961,0.166,1.082,0.641 c0.119,0.475-0.164,0.959-0.645,1.081C131.01,220.566,130.525,220.279,130.404,219.804z" fill="inherit"/><path d="M137.207,223.991c-0.203-0.798,0.279-1.611,1.074-1.813c0.801-0.205,1.611,0.279,1.816,1.076 c0.203,0.799-0.277,1.61-1.078,1.814C138.221,225.271,137.41,224.789,137.207,223.991z" fill="inherit"/><path d="M121.283,231.678c-0.271-1.068,0.375-2.156,1.443-2.429c1.066-0.272,2.156,0.374,2.43,1.442 c0.271,1.07-0.375,2.157-1.443,2.43C122.645,233.393,121.557,232.748,121.283,231.678z" fill="inherit"/><circle cx="137.384" cy="229.261" fill="inherit" r="1.017"/><circle cx="133.459" cy="224.163" fill="inherit" r="2.249"/></g><g fill="#8A96CB" id="change2_2"><circle cx="134.582" cy="251.662" fill="inherit" r="1.842"/><circle cx="132.291" cy="233.237" fill="inherit" r="2.562"/><path d="M125.027,240.356c-0.303-1.185,0.414-2.39,1.6-2.69c1.184-0.303,2.391,0.413,2.691,1.596 c0.303,1.186-0.416,2.393-1.6,2.693C126.537,242.258,125.33,241.541,125.027,240.356z" fill="inherit"/><circle cx="136.215" cy="244.511" fill="inherit" r="1.143"/><circle cx="139.937" cy="252.664" fill="inherit" r=".45"/><circle cx="124.503" cy="245.509" fill="inherit" r=".452"/><circle cx="139.245" cy="248.119" fill="inherit" r="1.105"/><circle cx="144.899" cy="249.097" fill="inherit" r=".89"/><path d="M132.799,239.979c-0.17-0.658,0.229-1.329,0.885-1.497c0.662-0.168,1.332,0.23,1.498,0.889 c0.168,0.66-0.229,1.33-0.889,1.498C133.635,241.036,132.965,240.639,132.799,239.979z" fill="inherit"/><path d="M137.262,235.871c-0.117-0.475,0.17-0.959,0.643-1.08c0.479-0.121,0.961,0.166,1.082,0.642 s-0.166,0.958-0.645,1.08C137.871,236.635,137.385,236.347,137.262,235.871z" fill="inherit"/><path d="M144.066,240.058c-0.205-0.798,0.277-1.61,1.076-1.812c0.799-0.205,1.611,0.277,1.814,1.076 s-0.277,1.609-1.078,1.814C145.084,241.339,144.27,240.857,144.066,240.058z" fill="inherit"/><circle cx="130.079" cy="247.251" fill="inherit" r="1.998"/><circle cx="144.244" cy="245.329" fill="inherit" r="1.018"/><path d="M138.139,240.786c-0.307-1.203,0.424-2.427,1.623-2.733c1.205-0.307,2.43,0.42,2.738,1.623 c0.307,1.203-0.422,2.428-1.627,2.734C139.672,242.717,138.445,241.989,138.139,240.786z" fill="inherit"/></g><g fill="#8A96CB" id="change2_3"><circle cx="141.477" cy="267.188" fill="inherit" r="1.84"/><circle cx="146.604" cy="249.343" fill="inherit" r="2.564"/><circle cx="139.317" cy="253.379" fill="inherit" r="2.215"/><circle cx="145.785" cy="261.251" fill="inherit" r="1.142"/><circle cx="146.009" cy="270.211" fill="inherit" r=".452"/><circle cx="134.624" cy="257.573" fill="inherit" r=".454"/><path d="M146.066,265.59c0.092-0.603,0.658-1.016,1.258-0.923c0.607,0.094,1.018,0.659,0.924,1.262 c-0.094,0.604-0.656,1.017-1.262,0.923C146.385,266.758,145.973,266.193,146.066,265.59z" fill="inherit"/><circle cx="135.508" cy="263.493" fill="inherit" r=".891"/><circle cx="151.975" cy="268.877" fill="inherit" r=".891"/><circle cx="145.638" cy="255.931" fill="inherit" r="1.23"/><circle cx="151.021" cy="253.854" fill="inherit" r=".889"/><circle cx="156.229" cy="260.466" fill="inherit" r="1.491"/><circle cx="139.068" cy="261.364" fill="inherit" r="1.998"/><path d="M151.846,265c0.088-0.555,0.609-0.934,1.16-0.849c0.557,0.087,0.936,0.606,0.85,1.16 c-0.088,0.555-0.605,0.935-1.16,0.849C152.143,266.074,151.762,265.555,151.846,265z" fill="inherit"/><path d="M149.02,258.582c0.189-1.228,1.34-2.068,2.564-1.878c1.23,0.19,2.07,1.34,1.881,2.567 c-0.191,1.227-1.34,2.068-2.568,1.877C149.67,260.959,148.828,259.809,149.02,258.582z" fill="inherit"/></g><g fill="#8A96CB" id="change2_12"><circle cx="120.08" cy="244.244" fill="inherit" r="2.562"/><circle cx="119.264" cy="256.151" fill="inherit" r="1.142"/><path d="M119.541,260.49c0.094-0.602,0.66-1.015,1.262-0.922c0.605,0.094,1.016,0.659,0.922,1.262 c-0.094,0.604-0.656,1.016-1.262,0.922C119.863,261.659,119.447,261.094,119.541,260.49z" fill="inherit"/><circle cx="125.45" cy="263.779" fill="inherit" r=".89"/><path d="M117.9,250.643c0.104-0.67,0.732-1.131,1.402-1.027c0.674,0.105,1.133,0.734,1.029,1.404 c-0.105,0.674-0.732,1.133-1.408,1.029C118.258,251.945,117.795,251.316,117.9,250.643z" fill="inherit"/><circle cx="124.499" cy="248.755" fill="inherit" r=".888"/><path d="M128.232,255.139c0.127-0.813,0.891-1.371,1.701-1.244c0.816,0.126,1.373,0.888,1.246,1.701 c-0.127,0.814-0.889,1.373-1.703,1.246C128.666,256.717,128.107,255.953,128.232,255.139z" fill="inherit"/><circle cx="126.328" cy="260.057" fill="inherit" r="1.016"/><path d="M122.496,253.482c0.191-1.227,1.34-2.067,2.568-1.877c1.225,0.189,2.066,1.34,1.877,2.566 c-0.191,1.229-1.342,2.068-2.566,1.878C123.146,255.859,122.307,254.711,122.496,253.482z" fill="inherit"/></g><g fill="#004E81" id="change3_4"><path d="M200.002,224.404c-20.48,0-41.044-0.642-58.989-1.303l0.182-4.938 c21.474,0.79,46.697,1.552,70.998,1.217l0.068,4.941C208.192,224.379,204.099,224.404,200.002,224.404z" fill="inherit"/><path d="M200.496,238.656c-20.457,0-41.027-0.641-58.983-1.302l0.182-4.938 c21.492,0.79,46.728,1.558,70.996,1.216l0.068,4.941C208.69,238.631,204.596,238.656,200.496,238.656z" fill="inherit"/><path d="M199.356,254.82c-20.458,0-41.028-0.641-58.984-1.302l0.182-4.938 c21.493,0.79,46.735,1.556,70.998,1.216l0.068,4.941C207.552,254.795,203.456,254.82,199.356,254.82z" fill="inherit"/></g><g><g id="change1_1"><path d="M191.342,156.278c0.414-13.172,6.994-20.038,34.18-21.547c18.613-1.033,65.869-5.062,79.979,10.955 c7.98,9.058,6.588,42.737,6.107,54.008c-0.674,15.745-5.531,22.235-20.816,22.862c-0.658,0.027-1.316,0.056-1.975,0.083 c1.123,5.636,2.248,11.409,2.988,11.308c-4.123,0.564-12.178-6.676-15.656-8.931c-0.828-0.537-1.902-1.1-3.051-1.708 c-23.463,0.959-46.865,1.446-70.215-2.225C185.918,218.416,190.482,183.478,191.342,156.278z" fill="#A5ABD7"/></g><g id="change3_1"><path d="M291.327,236.449c-3.706,0-8.297-3.235-13.479-7.145c-1.225-0.923-2.281-1.72-3.044-2.215 c-0.6-0.389-1.405-0.824-2.273-1.285c-8.21,0.332-17.817,0.663-27.412,0.663c-16.306,0-29.849-0.935-42.62-2.943 c-16.733-2.631-15.419-29.432-14.146-55.35c0.195-3.986,0.397-8.109,0.52-11.974c0.503-15.999,10.398-22.486,36.513-23.936 c1.224-0.068,2.573-0.149,4.028-0.236c6.88-0.413,16.303-0.979,26.201-0.979c27.107,0,44.031,4.254,51.74,13.004 c7.778,8.829,7.562,36.044,6.722,55.747c-0.744,17.389-6.804,24.299-22.271,25.181c0.639,3.153,1.389,6.654,1.804,7.439 c-0.129-0.244-0.742-0.942-1.823-0.942v2.326l0.355,2.592h-0.001c-0.003,0-0.006,0.001-0.008,0.001l-0.185,0.021 C291.746,236.438,291.539,236.449,291.327,236.449z M273.664,220.813l0.793,0.42c1.113,0.59,2.165,1.146,3.036,1.711 c0.91,0.59,2.032,1.437,3.331,2.416c1.813,1.368,4.619,3.485,7.027,4.844c-0.39-1.715-0.818-3.865-1.353-6.55l-0.67-3.362 l4.859-0.203c13.491-0.554,17.802-5.343,18.45-20.499c1.242-29.137-0.605-46.723-5.492-52.269 c-6.622-7.517-22.782-11.329-48.032-11.329c-9.75,0-19.087,0.561-25.905,0.97c-1.463,0.088-2.819,0.169-4.051,0.238 c-26.312,1.46-31.491,7.859-31.847,19.157c-0.124,3.909-0.327,8.053-0.523,12.061c-1.11,22.632-2.369,48.285,9.979,50.227 c12.512,1.967,25.811,2.883,41.853,2.883c9.767,0,19.573-0.347,27.878-0.687L273.664,220.813z" fill="#004E81"/></g><g id="change2_4"><path d="M223.27,215.741c0.156,1.406-0.859,2.673-2.266,2.829c-1.404,0.155-2.672-0.857-2.83-2.265 c-0.154-1.407,0.861-2.673,2.266-2.829C221.846,213.32,223.113,214.334,223.27,215.741z" fill="#8A96CB"/></g><g id="change2_5"><circle cx="210.435" cy="198.571" fill="#8A96CB" r=".891"/></g><g id="change2_6"><path d="M221.154,209.276c0.076,0.675-0.412,1.284-1.084,1.359c-0.678,0.074-1.285-0.413-1.361-1.087 c-0.076-0.677,0.412-1.285,1.09-1.36C220.469,208.113,221.082,208.601,221.154,209.276z" fill="#8A96CB"/></g><g id="change2_7"><path d="M216.162,212.726c0.055,0.487-0.299,0.926-0.783,0.98c-0.49,0.054-0.928-0.298-0.982-0.785 s0.295-0.927,0.783-0.98C215.668,211.886,216.109,212.238,216.162,212.726z" fill="#8A96CB"/></g><g id="change2_8"><path d="M210.008,207.637c0.088,0.817-0.502,1.556-1.32,1.646c-0.82,0.091-1.555-0.499-1.646-1.317 c-0.09-0.819,0.498-1.556,1.32-1.647C209.176,206.228,209.914,206.817,210.008,207.637z" fill="#8A96CB"/></g><g id="change2_9"><circle cx="210.56" cy="202.392" fill="#8A96CB" r="1.015"/></g><g id="change2_10"><circle cx="213.74" cy="207.985" fill="#8A96CB" r="2.25"/></g><g fill="#8A96CB" id="change2_11"><circle cx="205.857" cy="176.109" fill="inherit" r="1.84"/><path d="M201.082,158.316c-0.348-1.372,0.48-2.767,1.852-3.114c1.367-0.351,2.766,0.479,3.115,1.849 c0.35,1.371-0.48,2.767-1.85,3.115C202.828,160.516,201.434,159.688,201.082,158.316z" fill="inherit"/><circle cx="198.448" cy="164.256" fill="inherit" r="2.214"/><circle cx="207.489" cy="168.958" fill="inherit" r="1.142"/><circle cx="211.211" cy="177.11" fill="inherit" r=".451"/><path d="M195.34,170.066c-0.063-0.241,0.084-0.487,0.326-0.549c0.242-0.063,0.488,0.084,0.551,0.326 c0.059,0.242-0.086,0.487-0.328,0.55C195.646,170.455,195.402,170.31,195.34,170.066z" fill="inherit"/><path d="M209.449,172.838c-0.15-0.591,0.207-1.192,0.795-1.343c0.594-0.15,1.195,0.207,1.346,0.797 c0.152,0.593-0.207,1.193-0.799,1.345C210.201,173.787,209.6,173.43,209.449,172.838z" fill="inherit"/><circle cx="216.173" cy="173.542" fill="inherit" r=".89"/><path d="M204.074,164.425c-0.172-0.657,0.23-1.328,0.885-1.496c0.66-0.168,1.332,0.23,1.498,0.889 c0.168,0.659-0.229,1.33-0.891,1.498C204.91,165.482,204.24,165.085,204.074,164.425z" fill="inherit"/><path d="M208.539,160.317c-0.119-0.475,0.166-0.959,0.641-1.079c0.479-0.122,0.961,0.166,1.082,0.641 c0.119,0.476-0.164,0.959-0.645,1.081C209.145,161.081,208.66,160.794,208.539,160.317z" fill="inherit"/><path d="M215.342,164.505c-0.203-0.798,0.279-1.611,1.074-1.813c0.801-0.204,1.611,0.279,1.816,1.077 c0.203,0.798-0.277,1.609-1.078,1.813C216.355,165.785,215.545,165.303,215.342,164.505z" fill="inherit"/><path d="M199.418,172.191c-0.271-1.067,0.375-2.156,1.443-2.429c1.066-0.271,2.156,0.375,2.43,1.442 c0.271,1.07-0.375,2.157-1.443,2.43C200.779,173.906,199.691,173.262,199.418,172.191z" fill="inherit"/><circle cx="215.52" cy="169.775" fill="inherit" r="1.018"/><circle cx="211.594" cy="164.677" fill="inherit" r="2.249"/></g><g fill="#8A96CB" id="change2_13"><circle cx="212.717" cy="192.176" fill="inherit" r="1.842"/><circle cx="210.426" cy="173.751" fill="inherit" r="2.562"/><path d="M203.162,180.87c-0.301-1.185,0.414-2.39,1.6-2.691c1.184-0.301,2.391,0.414,2.691,1.598 c0.303,1.186-0.416,2.392-1.6,2.693C204.672,182.771,203.465,182.055,203.162,180.87z" fill="inherit"/><circle cx="214.35" cy="185.025" fill="inherit" r="1.143"/><circle cx="218.071" cy="193.179" fill="inherit" r=".45"/><circle cx="202.638" cy="186.022" fill="inherit" r=".452"/><circle cx="217.38" cy="188.633" fill="inherit" r="1.105"/><circle cx="223.034" cy="189.61" fill="inherit" r=".89"/><path d="M210.934,180.493c-0.17-0.658,0.229-1.329,0.885-1.496c0.662-0.169,1.332,0.23,1.498,0.888 c0.17,0.66-0.229,1.329-0.889,1.498C211.77,181.55,211.1,181.152,210.934,180.493z" fill="inherit"/><path d="M215.398,176.385c-0.119-0.474,0.168-0.959,0.641-1.08c0.479-0.121,0.961,0.167,1.082,0.642 c0.121,0.476-0.166,0.958-0.645,1.08C216.006,177.148,215.52,176.86,215.398,176.385z" fill="inherit"/><path d="M222.201,180.571c-0.205-0.797,0.277-1.609,1.076-1.813c0.799-0.204,1.611,0.279,1.814,1.076 c0.203,0.799-0.277,1.611-1.078,1.815C223.219,181.853,222.404,181.37,222.201,180.571z" fill="inherit"/><circle cx="208.214" cy="187.766" fill="inherit" r="1.998"/><circle cx="222.38" cy="185.842" fill="inherit" r="1.017"/><path d="M216.275,181.3c-0.309-1.203,0.422-2.427,1.621-2.733c1.205-0.307,2.43,0.42,2.738,1.623 c0.307,1.204-0.422,2.428-1.627,2.735C217.807,183.231,216.58,182.503,216.275,181.3z" fill="inherit"/></g><g fill="#8A96CB" id="change2_21"><circle cx="219.611" cy="207.702" fill="inherit" r="1.84"/><circle cx="224.738" cy="189.857" fill="inherit" r="2.564"/><circle cx="217.452" cy="193.893" fill="inherit" r="2.215"/><circle cx="223.92" cy="201.765" fill="inherit" r="1.142"/><circle cx="224.145" cy="210.725" fill="inherit" r=".453"/><circle cx="212.759" cy="198.086" fill="inherit" r=".454"/><path d="M224.201,206.104c0.092-0.603,0.658-1.016,1.258-0.923c0.607,0.094,1.018,0.659,0.924,1.262 c-0.094,0.604-0.656,1.017-1.262,0.923C224.52,207.271,224.107,206.707,224.201,206.104z" fill="inherit"/><circle cx="213.643" cy="204.007" fill="inherit" r=".891"/><path d="M229.23,209.254c0.074-0.484,0.529-0.817,1.014-0.743c0.49,0.076,0.82,0.531,0.746,1.017 c-0.076,0.487-0.531,0.819-1.02,0.743C229.486,210.195,229.152,209.741,229.23,209.254z" fill="inherit"/><circle cx="223.772" cy="196.444" fill="inherit" r="1.23"/><circle cx="229.155" cy="194.367" fill="inherit" r=".889"/><circle cx="234.364" cy="200.979" fill="inherit" r="1.491"/><circle cx="217.204" cy="201.878" fill="inherit" r="1.997"/><path d="M229.982,205.514c0.086-0.555,0.607-0.934,1.158-0.849c0.557,0.086,0.936,0.606,0.85,1.16 c-0.086,0.555-0.605,0.935-1.16,0.849C230.277,206.588,229.896,206.068,229.982,205.514z" fill="inherit"/><circle cx="229.377" cy="199.44" fill="inherit" r="2.249"/></g><g fill="#8A96CB" id="change2_1"><circle cx="198.215" cy="184.758" fill="inherit" r="2.562"/><circle cx="197.398" cy="196.666" fill="inherit" r="1.142"/><path d="M197.676,201.004c0.094-0.602,0.662-1.015,1.262-0.921c0.605,0.094,1.016,0.658,0.922,1.261 c-0.094,0.604-0.656,1.017-1.26,0.923C197.998,202.173,197.582,201.608,197.676,201.004z" fill="inherit"/><circle cx="203.585" cy="204.292" fill="inherit" r=".89"/><path d="M196.035,191.157c0.104-0.671,0.732-1.132,1.402-1.028c0.674,0.105,1.133,0.734,1.029,1.405 c-0.105,0.673-0.732,1.133-1.408,1.028C196.393,192.459,195.93,191.83,196.035,191.157z" fill="inherit"/><circle cx="202.634" cy="189.269" fill="inherit" r=".888"/><path d="M206.367,195.653c0.127-0.813,0.891-1.371,1.701-1.245c0.816,0.126,1.373,0.888,1.246,1.702 c-0.127,0.813-0.889,1.372-1.703,1.245C206.801,197.23,206.242,196.468,206.367,195.653z" fill="inherit"/><circle cx="204.463" cy="200.571" fill="inherit" r="1.016"/><path d="M200.631,193.996c0.191-1.226,1.34-2.067,2.568-1.877c1.225,0.189,2.066,1.34,1.877,2.566 c-0.191,1.229-1.342,2.068-2.566,1.878C201.281,196.373,200.441,195.225,200.631,193.996z" fill="inherit"/></g><g id="change3_3"><path d="M227.052,187.563c-4.609,0-8.658-3.04-9.651-7.266c-0.921-3.906-0.501-9.083,6.585-11.782l-0.017-0.16 c0.308-0.032,0.617-0.068,0.928-0.104c2.964-0.346,7.021-0.821,9.537,2.872c2.01,2.947,2.041,7.637,0.077,11.404 c-1.651,3.167-4.328,5.002-7.343,5.036C227.13,187.563,227.091,187.563,227.052,187.563z M225.54,172.188 c-3.89,1.43-5.125,3.528-4.261,7.196c0.574,2.439,2.994,4.193,5.771,4.193c0.024,0,0.049,0,0.073,0 c2.128-0.023,3.403-2.031,3.853-2.893c1.294-2.482,1.363-5.559,0.164-7.317C230.111,171.858,228.628,171.833,225.54,172.188z" fill="#004E81"/></g><g id="change3_2"><path d="M252.425,187.65C252.424,187.65,252.425,187.65,252.425,187.65c-0.632,0-1.271-0.063-1.896-0.187 c-4.751-0.942-7.03-5.597-7.182-9.792c-0.201-5.554,3.41-10.198,8.587-11.042l0.221-0.025c4.878-0.345,8.961,1.978,10.65,6.027 c1.259,3.02,0.76,6.7-1.336,9.844C259.31,185.715,255.929,187.65,252.425,187.65z M252.597,171.368 c-3.203,0.582-4.563,3.572-4.471,6.13c0.058,1.607,0.829,4.777,3.331,5.274c2.222,0.434,4.548-0.721,6.032-2.948 c1.188-1.784,1.534-3.834,0.901-5.352c-1.174-2.814-4.111-3.118-5.319-3.118C252.914,171.354,252.756,171.359,252.597,171.368z" fill="#004E81"/></g><g id="change3_5"><path d="M282.112,188.398C282.111,188.398,282.111,188.398,282.112,188.398c-1.053,0-2.123-0.188-3.182-0.559 c-4.248-1.487-6.923-5.463-6.815-10.129c0.112-4.892,3.186-9.076,7.647-10.411l0.343-0.103l0.356,0.003 c5.358,0.043,8.883,2.069,10.777,6.195c1.393,3.032,0.952,7.08-1.12,10.313C288.207,186.689,285.289,188.398,282.112,188.398z M280.802,171.954c-2.648,0.962-3.889,3.602-3.941,5.866c-0.022,0.993,0.172,4.326,3.639,5.54 c0.554,0.194,1.097,0.292,1.612,0.292c2.092,0,3.411-1.57,4.012-2.506c1.184-1.847,1.514-4.22,0.802-5.77 C285.86,173.056,284.073,172.049,280.802,171.954z" fill="#004E81"/></g></g></svg>