<?xml version="1.0" encoding="UTF-8"?><svg xmlns="http://www.w3.org/2000/svg" xmlns:xlink="http://www.w3.org/1999/xlink" height="62.2" preserveAspectRatio="xMidYMid meet" version="1.0" viewBox="0.0 -0.2 62.0 62.2" width="62.0" zoomAndPan="magnify"><g id="change1_1"><path d="M33.982,33.667l-1.491-1.334c-0.756,0.848-2.224,0.848-2.981,0l-1.491,1.334C28.776,34.514,29.863,35,31,35 C32.137,35,33.224,34.514,33.982,33.667z" fill="inherit"/><path d="M45,37.689c0-1.304-0.382-2.565-1.104-3.648l-0.126-0.19C43.266,33.097,43,32.218,43,31.311V24c0-6.617-5.383-12-12-12 s-12,5.383-12,12v7.311c0,0.907-0.266,1.786-0.769,2.541l-0.125,0.188C17.382,35.124,17,36.386,17,37.689 c0,1.758,0.685,3.409,1.927,4.651c0.761,0.761,1.704,1.266,2.728,1.501C20.61,45.32,20,47.109,20,49v1h22v-1 c0-1.891-0.609-3.681-1.654-5.158c1.023-0.235,1.967-0.74,2.727-1.501C44.315,41.099,45,39.447,45,37.689z M27.896,36.83 l-0.132-0.066C26.059,35.912,25,34.198,25,32.292V27c0-1.103,0.897-2,2-2h1.274c1.802,1.876,4.324,3,7.05,3H37L37,32.291 c0,1.906-1.059,3.62-2.764,4.473l-0.13,0.065C33.424,37.169,33,37.854,33,38.618v1.628c0,0.889,0.597,1.68,1.451,1.923l0.506,0.145 c0.328,0.094,0.645,0.211,0.949,0.349C34.78,43.476,32.946,44,31,44c-1.946,0-3.78-0.524-4.906-1.338 c0.304-0.138,0.621-0.255,0.949-0.349l0.505-0.145C28.403,41.926,29,41.135,29,40.245v-1.627C29,37.855,28.576,37.17,27.896,36.83z M22.073,48c0.241-1.638,1.067-3.12,2.277-4.197C25.8,45.157,28.268,46,31,46c2.732,0,5.2-0.843,6.65-2.197 c1.211,1.078,2.037,2.559,2.277,4.197H22.073z M41.658,40.927C40.967,41.619,40.047,42,39.068,42h-0.454 c-0.903-0.723-1.952-1.28-3.108-1.61L35,40.246l0-1.628l0.131-0.065C37.518,37.359,39,34.96,39,32.291L39,26h-3.675 c-3.352,0-6.316-2.137-7.376-5.316l-1.897,0.633c0.198,0.593,0.448,1.157,0.746,1.688C24.686,23.111,23.001,24.862,23,27v5.292 c0,2.669,1.482,5.068,3.868,6.26L27,38.618l0,1.627l-0.507,0.145c-1.156,0.33-2.204,0.888-3.108,1.61h-0.454 c-0.979,0-1.898-0.381-2.59-1.073C19.477,40.063,19,38.912,19,37.689c0-0.907,0.266-1.785,0.77-2.541l0.125-0.188 C20.618,33.877,21,32.614,21,31.311V24c0-5.514,4.486-10,10-10s10,4.486,10,10v7.311c0,1.304,0.382,2.566,1.104,3.648l0.126,0.19 C42.734,35.904,43,36.782,43,37.689C43,38.912,42.523,40.063,41.658,40.927z" fill="inherit"/><path d="M52 52H54V54H52z" fill="inherit"/><path d="M56 52H58V54H56z" fill="inherit"/><path d="M48 52H50V54H48z" fill="inherit"/><path d="M56.365,13.214c2.162-1.737,3.935-3.912,5.194-6.431C61.848,6.207,62,5.562,62,4.857c0-1.273-0.57-2.461-1.566-3.258 l-1.31-1.047c-0.966-0.771-2.486-0.686-3.361,0.187l-2.058,2.059C53.25,3.253,53,3.857,53,4.5s0.25,1.247,0.706,1.703l0.424,0.424 c-0.151,0.755-0.748,1.352-1.502,1.503l-0.424-0.425c-0.896-0.896-2.51-0.896-3.405,0L46.74,9.763 C46.263,10.239,46,10.874,46,11.549c0,0.57,0.196,1.131,0.553,1.577l1.047,1.309C48.397,15.43,49.584,16,50.858,16 c0.697,0,1.388-0.177,1.998-0.51l0.639-0.348c0.43-0.235,0.849-0.485,1.257-0.748C58.175,19.278,60,24.991,60,31 c0,6.17-1.916,12.033-5.521,17H47c-1.654,0-3,1.346-3,3v4c0,0.612,0.186,1.181,0.502,1.656C40.357,58.84,35.722,60,31,60 c-4.515,0-8.993-1.071-13-3.083V48H7.524C3.918,43.033,2,37.174,2,31c0-5.86,1.742-11.45,5.009-16.257C8.142,15.533,9.517,16,11,16 v-2c-2.757,0-5-2.243-5-5V7c0-2.757,2.243-5,5-5s5,2.243,5,5v5c0,0.552-0.449,1-1,1s-1-0.448-1-1V9V8V7c0-1.654-1.346-3-3-3 S8,5.346,8,7v2c0,1.654,1.346,3,3,3c0.352,0,0.686-0.072,1-0.184V12c0,1.654,1.346,3,3,3s3-1.346,3-3V7 c0-0.62-0.089-1.219-0.241-1.792C21.832,3.116,26.389,2,31,2c5.495,0,10.843,1.544,15.466,4.464l1.068-1.691 C42.591,1.65,36.874,0,31,0c-4.881,0-9.705,1.17-14.028,3.367C15.741,1.352,13.529,0,11,0C7.14,0,4,3.141,4,7v2 c0,1.648,0.576,3.161,1.532,4.359C1.923,18.556,0,24.63,0,31c0,6.118,1.763,11.949,5.09,17H0v14h18v-2.858 C22.05,61.012,26.509,62,31,62c5.398,0,10.691-1.415,15.351-4.075C46.56,57.971,46.776,58,47,58h1v1.764 C48,60.997,49.003,62,50.236,62c0.853,0,1.619-0.474,2-1.236L53.618,58H59c1.654,0,3-1.346,3-3v-4c0-1.654-1.346-3-3-3h-2.093 C60.235,42.949,62,37.117,62,31C62,24.563,60.041,18.443,56.365,13.214z M52.537,13.387l-0.639,0.348 c-0.898,0.49-2.095,0.252-2.736-0.55l-1.047-1.309C48.041,11.784,48,11.667,48,11.549c0-0.141,0.055-0.272,0.154-0.372l2.058-2.058 C50.287,9.043,50.393,9,50.5,9s0.213,0.043,0.288,0.119l1.047,1.048h0.415c2.16,0,3.917-1.757,3.917-3.917V5.836L55.12,4.79 C55.044,4.713,55,4.607,55,4.5s0.044-0.213,0.12-0.289l2.057-2.057c0.182-0.184,0.499-0.199,0.7-0.039l1.308,1.046 C59.703,3.576,60,4.194,60,4.918c0,0.335-0.079,0.671-0.229,0.971C58.174,9.084,55.672,11.677,52.537,13.387z M11,10 c-0.551,0-1-0.448-1-1V7c0-0.552,0.449-1,1-1s1,0.448,1,1v1v1C12,9.552,11.551,10,11,10z M9,55.586L3.414,50h11.172L9,55.586z M5.586,55L2,58.586v-7.172L5.586,55z M7,56.414l2,2l2-2L14.586,60H3.414L7,56.414z M12.414,55L16,51.414v7.172L12.414,55z M60,51 v4c0,0.552-0.449,1-1,1h-6.618l-1.935,3.869c-0.098,0.197-0.448,0.114-0.447-0.105V56h-3c-0.551,0-1-0.448-1-1v-4 c0-0.552,0.449-1,1-1h12C59.551,50,60,50.448,60,51z" fill="inherit"/><path d="M4,31c0,0.348,0.007,0.693,0.02,1.038l1.999-0.076C6.006,31.643,6,31.322,6,31s0.006-0.643,0.019-0.962L4.02,29.962 C4.007,30.307,4,30.652,4,31z" fill="inherit"/><path d="M9.344,43.499c-1.718-2.97-2.788-6.204-3.179-9.613l-1.987,0.229c0.423,3.683,1.579,7.178,3.435,10.387L9.344,43.499z" fill="inherit"/><path d="M27.886,57.822l0.229-1.986c-1.975-0.228-3.916-0.689-5.768-1.374l-0.692,1.877C23.655,57.077,25.752,57.577,27.886,57.822 z" fill="inherit"/><path d="M29.962,57.98C30.306,57.994,30.652,58,31,58s0.694-0.006,1.038-0.02l-0.076-1.998c-0.638,0.023-1.286,0.023-1.924,0 L29.962,57.98z" fill="inherit"/><path d="M34.114,57.822c2.134-0.245,4.23-0.745,6.232-1.483l-0.692-1.877c-1.853,0.685-3.793,1.146-5.768,1.374L34.114,57.822z" fill="inherit"/><path d="M54.387,44.501c1.856-3.209,3.012-6.704,3.435-10.387l-1.987-0.229c-0.391,3.409-1.461,6.644-3.179,9.613L54.387,44.501z" fill="inherit"/><path d="M57.98,32.038C57.993,31.693,58,31.348,58,31s-0.007-0.693-0.02-1.038l-1.999,0.076C55.994,30.357,56,30.678,56,31 s-0.006,0.643-0.019,0.962L57.98,32.038z" fill="inherit"/><path d="M53.66,20.424c1.137,2.433,1.869,5.02,2.175,7.69l1.987-0.229c-0.331-2.885-1.122-5.681-2.351-8.31L53.66,20.424z" fill="inherit"/><path d="M43.462,7.042c-2.922-1.523-6.067-2.487-9.348-2.864l-0.229,1.986c3.037,0.35,5.948,1.242,8.652,2.651L43.462,7.042z" fill="inherit"/><path d="M32.038,4.02c-0.688-0.027-1.388-0.027-2.076,0l0.076,1.998c0.638-0.023,1.286-0.023,1.924,0L32.038,4.02z" fill="inherit"/><path d="M27.886,4.178c-2.134,0.245-4.23,0.745-6.232,1.483l0.692,1.877c1.853-0.685,3.793-1.146,5.768-1.374L27.886,4.178z" fill="inherit"/><path d="M8.34,20.424l-1.812-0.848c-1.229,2.629-2.02,5.425-2.351,8.31l1.987,0.229C6.471,25.443,7.203,22.856,8.34,20.424z" fill="inherit"/></g></svg>