<?xml version="1.0" encoding="UTF-8"?><svg xmlns="http://www.w3.org/2000/svg" xmlns:xlink="http://www.w3.org/1999/xlink" height="119.8" preserveAspectRatio="xMidYMid meet" version="1.0" viewBox="0.0 0.0 126.0 119.8" width="126.0" zoomAndPan="magnify"><g id="change1_1"><path d="M126,60.42c0-12.504-10.173-22.677-22.677-22.677S80.646,47.916,80.646,60.42c0,6.802,3.014,12.909,7.772,17.069 l-11.885,8.044c-2.149-2.014-4.732-3.569-7.608-4.471c-0.015-0.005-0.029-0.011-0.044-0.015c-1.552-0.483-3.193-0.755-4.881-0.84 V45.328c3.503-0.153,6.803-1.103,9.72-2.675c0.023-0.01,0.042-0.022,0.064-0.033c7.077-3.842,11.892-11.341,11.892-19.944 C85.677,10.173,75.504,0,63,0S40.323,10.173,40.323,22.677c0,8.602,4.815,16.101,11.891,19.943c0.022,0.011,0.043,0.024,0.066,0.034 c2.918,1.572,6.217,2.521,9.719,2.674v34.878c-1.689,0.085-3.329,0.357-4.881,0.84c-0.015,0.004-0.029,0.01-0.044,0.015 c-2.876,0.903-5.459,2.458-7.608,4.471l-11.885-8.044c4.758-4.16,7.772-10.267,7.772-17.069c0-12.504-10.173-22.677-22.677-22.677 S0,47.916,0,60.42c0,8.604,4.816,16.103,11.893,19.945c0.021,0.011,0.04,0.023,0.062,0.032c3.194,1.721,6.845,2.7,10.721,2.7 s7.527-0.979,10.721-2.7c0.022-0.009,0.041-0.021,0.062-0.032c0.864-0.469,1.691-0.997,2.483-1.57l12.113,8.198 c-0.808,0.929-1.528,1.932-2.155,3c-0.059,0.076-0.114,0.154-0.149,0.245c-1.635,2.882-2.581,6.203-2.581,9.746 c0,3.543,0.946,6.864,2.58,9.745c0.036,0.094,0.092,0.174,0.153,0.252c2.474,4.214,6.444,7.449,11.191,8.932 c0.023,0.007,0.046,0.014,0.069,0.019c1.846,0.569,3.804,0.879,5.834,0.879s3.989-0.309,5.834-0.879 c0.024-0.006,0.046-0.012,0.069-0.019c4.742-1.482,8.707-4.711,11.182-8.918c0.067-0.082,0.126-0.169,0.164-0.269 c1.634-2.881,2.579-6.201,2.579-9.742c0-3.542-0.945-6.862-2.579-9.743c-0.037-0.098-0.095-0.182-0.159-0.262 c-0.624-1.062-1.341-2.061-2.146-2.985l12.113-8.198c0.792,0.574,1.619,1.101,2.484,1.57c0.021,0.011,0.039,0.022,0.061,0.031 c3.194,1.721,6.845,2.701,10.721,2.701c3.876,0,7.527-0.979,10.721-2.7c0.022-0.009,0.041-0.021,0.062-0.032 C121.184,76.523,126,69.023,126,60.42z M2,60.42c0-11.401,9.275-20.677,20.677-20.677s20.677,9.275,20.677,20.677 c0,7.256-3.764,13.638-9.434,17.329c-0.284-3.819-1.421-12.978-5.883-17.178c1.94-1.568,3.185-3.962,3.185-6.645 c0-4.711-3.833-8.544-8.544-8.544c-4.711,0-8.544,3.833-8.544,8.544c0,2.682,1.245,5.077,3.184,6.645 c-4.462,4.199-5.6,13.359-5.883,17.178C5.764,74.058,2,67.675,2,60.42z M16.133,53.927c0-3.608,2.936-6.544,6.544-6.544 s6.544,2.936,6.544,6.544s-2.936,6.544-6.544,6.544S16.133,57.535,16.133,53.927z M13.37,78.859 c0.151-2.734,1.038-13.428,5.724-17.186c1.091,0.507,2.302,0.798,3.583,0.798c1.281,0,2.492-0.291,3.583-0.798 c4.686,3.758,5.573,14.451,5.724,17.186c-2.801,1.42-5.957,2.238-9.307,2.238S16.171,80.279,13.37,78.859z M78.721,108.375h-5.402 c0.587-2.461,0.914-4.925,0.983-7.391h6.475C80.629,103.642,79.913,106.15,78.721,108.375z M64,117.76v-7.386h6.694 c-0.7,2.249-1.624,4.493-2.78,6.732C66.66,117.467,65.35,117.685,64,117.76z M58.086,117.107c-1.156-2.239-2.08-4.484-2.78-6.732H62 v7.386C60.65,117.685,59.34,117.467,58.086,117.107z M45.223,100.984h6.475c0.07,2.465,0.397,4.93,0.983,7.391h-5.402 C46.087,106.15,45.371,103.642,45.223,100.984z M47.278,91.593h5.404c-0.587,2.462-0.914,4.926-0.984,7.391h-6.475 C45.371,96.326,46.087,93.817,47.278,91.593z M55.344,83.908c-0.868,1.892-1.566,3.788-2.126,5.685h-4.675 C50.289,87.17,52.625,85.208,55.344,83.908z M62,82.206v7.387h-6.692c0.7-2.249,1.624-4.494,2.779-6.733 C59.34,82.5,60.65,82.282,62,82.206z M67.913,82.86c1.155,2.24,2.079,4.485,2.779,6.733H64v-7.387 C65.35,82.282,66.66,82.5,67.913,82.86z M64,91.593h7.258c0.618,2.461,0.956,4.926,1.03,7.391H64V91.593z M62,98.984h-8.289 c0.074-2.465,0.412-4.929,1.03-7.391H62V98.984z M53.711,100.984H62v7.391h-7.259C54.123,105.914,53.785,103.449,53.711,100.984z M64,108.375v-7.391h8.289c-0.073,2.465-0.411,4.93-1.029,7.391H64z M74.302,98.984c-0.07-2.465-0.398-4.929-0.984-7.391h5.403 c1.192,2.224,1.907,4.732,2.056,7.391H74.302z M72.783,89.593c-0.561-1.898-1.258-3.793-2.126-5.685 c2.718,1.3,5.054,3.262,6.801,5.685H72.783z M53.693,41.115c0.15-2.735,1.032-13.425,5.725-17.185 c1.091,0.507,2.302,0.798,3.582,0.798c1.28,0,2.491-0.291,3.583-0.798c4.686,3.757,5.573,14.449,5.724,17.185 c-2.801,1.42-5.957,2.238-9.307,2.238C59.65,43.354,56.494,42.535,53.693,41.115z M63,22.728c-3.608,0-6.544-2.936-6.544-6.544 S59.392,9.64,63,9.64s6.544,2.936,6.544,6.544S66.608,22.728,63,22.728z M42.323,22.677C42.323,11.275,51.599,2,63,2 s20.677,9.275,20.677,20.677c0,7.255-3.764,13.638-9.434,17.329c-0.284-3.82-1.421-12.979-5.883-17.178 c1.939-1.568,3.184-3.962,3.184-6.645c0-4.711-3.833-8.544-8.544-8.544s-8.544,3.833-8.544,8.544c0,2.682,1.245,5.077,3.184,6.645 c-4.462,4.199-5.6,13.358-5.883,17.177C46.087,36.315,42.323,29.932,42.323,22.677z M48.543,110.375h4.673 c0.561,1.897,1.258,3.793,2.127,5.684C52.625,114.758,50.289,112.797,48.543,110.375z M70.658,116.058 c0.868-1.891,1.566-3.786,2.127-5.684h4.673C75.711,112.797,73.375,114.758,70.658,116.058z M82.646,60.42 c0-11.401,9.275-20.677,20.677-20.677S124,49.019,124,60.42c0,7.256-3.764,13.638-9.434,17.329 c-0.284-3.819-1.421-12.979-5.883-17.178c1.94-1.568,3.184-3.962,3.184-6.645c0-4.711-3.833-8.544-8.544-8.544 c-4.711,0-8.544,3.833-8.544,8.544c0,2.682,1.245,5.077,3.185,6.645c-4.462,4.2-5.599,13.359-5.883,17.178 C86.411,74.058,82.646,67.675,82.646,60.42z M96.779,53.927c0-3.608,2.936-6.544,6.544-6.544s6.544,2.936,6.544,6.544 s-2.936,6.544-6.544,6.544S96.779,57.535,96.779,53.927z M94.016,78.859c0.15-2.734,1.032-13.424,5.724-17.186 c1.091,0.507,2.303,0.798,3.583,0.798c1.28,0,2.492-0.291,3.583-0.798c4.686,3.758,5.573,14.451,5.724,17.186 c-2.801,1.42-5.957,2.238-9.307,2.238C99.973,81.097,96.817,80.279,94.016,78.859z" fill="inherit"/></g></svg>